<svg t="1606710640738" class="icon" viewBox="0 0 1024 1024" version="1.1" xmlns="http://www.w3.org/2000/svg" p-id="8297" width="24" height="24"><path d="M0 512c0 282.88 229.12 512 512 512s512-229.12 512-512S794.88 0 512 0 0 229.12 0 512z m517.12-40.96L652.8 335.36c12.8-12.8 33.28-12.8 44.8 0 12.8 12.8 12.8 33.28 0 44.8L561.92 517.12 691.2 646.4c12.8 12.8 12.8 33.28 0 44.8-12.8 12.8-33.28 12.8-44.8 0L517.12 561.92 381.44 697.6c-12.8 12.8-33.28 12.8-44.8 0-12.8-12.8-12.8-33.28 0-44.8l135.68-135.68-143.36-142.08c-12.8-12.8-12.8-33.28 0-44.8s33.28-12.8 44.8 0l143.36 140.8z" p-id="8298" fill="#ffa030"></path></svg>