<svg width="194" height="194" viewBox="0 0 194 194" fill="none" xmlns="http://www.w3.org/2000/svg">
<g clip-path="url(#clip0)">
<path d="M178.71 96.7098C178.71 141.997 141.997 178.71 96.7098 178.71C51.4225 178.71 14.7098 141.997 14.7098 96.7098C14.7098 51.4225 51.4225 14.7098 96.7098 14.7098C141.997 14.7098 178.71 51.4225 178.71 96.7098ZM16.3498 96.7098C16.3498 141.091 52.3282 177.07 96.7098 177.07C141.091 177.07 177.07 141.091 177.07 96.7098C177.07 52.3282 141.091 16.3498 96.7098 16.3498C52.3282 16.3498 16.3498 52.3282 16.3498 96.7098Z" fill="url(#paint0_linear)"/>
<path d="M164.39 125.74C169.059 114.855 171.033 103.004 170.146 91.1933C169.259 79.3826 165.536 67.9601 159.293 57.8947C153.051 47.8294 144.473 39.4183 134.286 33.3748C124.1 27.3314 112.607 23.834 100.781 23.1792L100.537 27.5911C111.653 28.2065 122.457 31.4941 132.032 37.1749C141.607 42.8558 149.67 50.7622 155.538 60.2236C161.407 69.685 164.906 80.4222 165.74 91.5243C166.574 102.626 164.718 113.766 160.329 123.998L164.39 125.74Z" fill="#36CFFF"/>
<path d="M58.65 159.756C74.5223 169.338 93.4249 172.58 111.583 168.835C129.742 165.091 145.819 154.635 156.606 139.556L153.012 136.985C142.873 151.16 127.76 160.988 110.691 164.508C93.622 168.028 75.8536 164.98 60.9335 155.973L58.65 159.756Z" fill="#36CFFF"/>
<path d="M26.562 74.2909C22.3732 87.3977 21.9401 101.416 25.3119 114.756C28.6838 128.096 35.7256 140.225 45.6391 149.767L48.7033 146.584C39.3846 137.614 32.7653 126.213 29.5958 113.673C26.4263 101.133 26.8334 87.9564 30.7709 75.6361L26.562 74.2909Z" fill="#36CFFF"/>
<path d="M83.4198 24.2757C73.0127 26.1852 63.1393 30.3149 54.4718 36.3835C45.8043 42.4521 38.5463 50.3172 33.1919 59.4433L37.003 61.6793C42.0361 53.1008 48.8586 45.7076 57.0061 40.0031C65.1535 34.2986 74.4346 30.4167 84.2172 28.6218L83.4198 24.2757Z" fill="#36CFFF"/>
</g>
<defs>
<linearGradient id="paint0_linear" x1="96.7098" y1="14.7098" x2="96.7098" y2="178.71" gradientUnits="userSpaceOnUse">
<stop stop-color="white"/>
<stop offset="1" stop-color="white" stop-opacity="0"/>
</linearGradient>
<clipPath id="clip0">
<rect width="193.42" height="193.42" fill="white"/>
</clipPath>
</defs>
</svg>
