<svg width="38" height="38" viewBox="0 0 38 38" fill="none" xmlns="http://www.w3.org/2000/svg">
<path d="M6.29412 33.5882C5.92148 33.5891 5.557 33.4791 5.24693 33.2725C4.93687 33.0658 4.69521 32.7716 4.55261 32.4273C4.41002 32.0831 4.37293 31.7042 4.44605 31.3388C4.51917 30.9734 4.6992 30.638 4.96329 30.3751L30.3751 4.96329C30.5498 4.78853 30.7573 4.6499 30.9856 4.55531C31.214 4.46073 31.4587 4.41205 31.7059 4.41205C31.953 4.41205 32.1978 4.46073 32.4261 4.55531C32.6545 4.6499 32.8619 4.78853 33.0367 4.96329C33.2115 5.13806 33.3501 5.34554 33.4447 5.57388C33.5393 5.80222 33.5879 6.04696 33.5879 6.29412C33.5879 6.54127 33.5393 6.78601 33.4447 7.01435C33.3501 7.2427 33.2115 7.45017 33.0367 7.62494L7.62494 33.0367C7.45062 33.2121 7.24324 33.3512 7.0148 33.4458C6.78635 33.5405 6.5414 33.5889 6.29412 33.5882V33.5882ZM9.82353 16.6471C6.06071 16.6471 3 13.5864 3 9.82353C3 6.06071 6.06071 3 9.82353 3C13.5864 3 16.6471 6.06071 16.6471 9.82353C16.6471 13.5864 13.5864 16.6471 9.82353 16.6471V16.6471ZM9.82353 6.76471C8.13694 6.76471 6.76471 8.13694 6.76471 9.82353C6.76471 11.5101 8.13694 12.8824 9.82353 12.8824C11.5101 12.8824 12.8824 11.5101 12.8824 9.82353C12.8824 8.13694 11.5101 6.76471 9.82353 6.76471V6.76471ZM28.1765 35C24.4136 35 21.3529 31.9393 21.3529 28.1765C21.3529 24.4136 24.4136 21.3529 28.1765 21.3529C31.9393 21.3529 35 24.4136 35 28.1765C35 31.9393 31.9393 35 28.1765 35ZM28.1765 25.1176C26.4899 25.1176 25.1176 26.4899 25.1176 28.1765C25.1176 29.8631 26.4899 31.2353 28.1765 31.2353C29.8631 31.2353 31.2353 29.8631 31.2353 28.1765C31.2353 26.4899 29.8631 25.1176 28.1765 25.1176Z" fill="#FF6262" fill-opacity="0.8"/>
</svg>
