<svg width="38" height="38" viewBox="0 0 38 38" fill="none" xmlns="http://www.w3.org/2000/svg">
<g clip-path="url(#clip0)">
<path d="M31 14.9647C27.1144 14.9647 23.9645 18.1145 23.9645 22C23.9645 25.8854 27.1144 29.0352 31 29.0352C34.8856 29.0352 38.0355 25.8854 38.0355 22C38.0355 18.1145 34.8856 14.9647 31 14.9647ZM30.5104 24.5028L29.5042 25.5086L28.4975 24.5028L26.4845 22.4898L27.4907 21.4837L29.5038 23.496L34.5089 18.4913L35.5155 19.4974L30.5104 24.5028Z" fill="#62FFD0" fill-opacity="0.8"/>
<path fill-rule="evenodd" clip-rule="evenodd" d="M22.223 20H15.0526C14.4704 20 14 19.529 14 18.9461V9.26347C14 9.11856 14.1184 9 14.2632 9H33.7368C33.8816 9 34 9.11856 34 9.26347V13.5121C33.0617 13.1805 32.0519 13 31 13C26.7168 13 23.1325 15.992 22.223 20ZM22.1241 20.5021H14.4008C13.222 20.5021 12.7969 20.0539 12.8069 18.9084V11.8062C12.8069 10.7437 12.4017 10 11.276 10H9.44624C7.50691 10 5.67717 10.9064 4.50494 12.4504C3.21316 14.1504 1.60259 16.2887 0.87866 17.3445C0.440319 17.9754 0.168016 18.7059 0.0916382 19.4695C-0.0212679 21.0766 0.00197747 24.2109 0.00197747 24.2109V25.9375C0.00197747 26.5252 0.476847 27 1.06462 27H2.65859C2.65859 26.2496 2.83127 25.5258 3.15339 24.875C3.38252 24.4168 3.68471 23.9918 4.05664 23.6199C4.96321 22.7168 6.162 22.2188 7.4405 22.2188C8.71899 22.2188 9.91779 22.7168 10.821 23.6199C11.193 23.9918 11.4985 24.4168 11.7243 24.875H22.281C22.3181 24.8008 22.3571 24.7275 22.3981 24.6551C22.1393 23.8158 22 22.9242 22 22C22 21.4897 22.0425 20.9893 22.1241 20.5021ZM23.1663 26.4341C23.0563 26.7781 23 27.1376 23 27.5C23 27.9596 23.0905 28.4148 23.2664 28.8394C23.4423 29.264 23.7001 29.6499 24.0251 29.9749C24.3501 30.2999 24.736 30.5577 25.1606 30.7336C25.5852 30.9095 26.0404 31 26.5 31C26.9596 31 27.4148 30.9095 27.8394 30.7336C27.9645 30.6818 28.0862 30.6229 28.204 30.5572C26.0559 29.8558 24.2633 28.3681 23.1663 26.4341ZM11.6811 16.873C11.6811 17.1652 11.442 17.401 11.1498 17.4043L2.38297 17.4209C2.27338 17.4209 2.21029 17.298 2.27338 17.2117C3.10025 16.0662 4.34886 14.4094 5.34841 13.0945C5.8266 12.467 6.45091 11.949 7.15823 11.6004C7.86556 11.2484 8.6559 11.0658 9.44292 11.0658H10.6284C11.2162 11.0658 11.6944 11.5439 11.6911 12.1316L11.6811 16.873ZM4 27.5C4 28.4283 4.36875 29.3185 5.02513 29.9749C5.6815 30.6313 6.57174 31 7.5 31C8.42826 31 9.3185 30.6313 9.97487 29.9749C10.6313 29.3185 11 28.4283 11 27.5C11 26.5717 10.6313 25.6815 9.97487 25.0251C9.3185 24.3687 8.42826 24 7.5 24C6.57174 24 5.6815 24.3687 5.02513 25.0251C4.36875 25.6815 4 26.5717 4 27.5Z" fill="#62FFD0" fill-opacity="0.8"/>
</g>
<defs>
<clipPath id="clip0">
<rect width="38" height="38" fill="white"/>
</clipPath>
</defs>
</svg>
