<svg width="38" height="38" viewBox="0 0 38 38" fill="none" xmlns="http://www.w3.org/2000/svg">
<g clip-path="url(#clip0)">
<path fill-rule="evenodd" clip-rule="evenodd" d="M25.3153 21.7051C27.7389 18.1418 30 14.0869 30 11.36C30 10.6589 29.9331 9.97372 29.8054 9.31055H37.7053C37.8686 9.31055 38.0022 9.44414 38.0022 9.60742V21.4082C38.0022 21.5715 37.8686 21.7051 37.7053 21.7051H25.3153ZM9.00038 11.2684C7.43477 11.6286 6.02455 12.526 5.03424 13.8305C3.59069 15.7305 1.79088 18.1203 0.981897 19.3004C0.492054 20.0055 0.187757 20.8219 0.102405 21.6754C-0.0237668 23.4715 0.00220981 26.9746 0.00220981 26.9746V28.9043C0.00220981 29.5611 0.532874 30.0918 1.18971 30.0918H2.97096C2.97096 29.2531 3.16393 28.4441 3.52389 27.7168C3.77994 27.2047 4.11764 26.7297 4.53326 26.3141C5.54635 25.3047 6.886 24.748 8.31471 24.748C9.74342 24.748 11.0831 25.3047 12.0924 26.3141C12.5081 26.7297 12.8495 27.2047 13.1018 27.7168H18.1922C16.695 25.8809 14.1891 22.6651 12.1716 19.3677L2.66295 19.3857C2.54049 19.3857 2.46998 19.2484 2.54049 19.152C3.46451 17.8717 4.85983 16.0199 5.97682 14.5504C6.51119 13.849 7.20885 13.2701 7.99928 12.8805C8.35271 12.7046 8.72468 12.5665 9.10658 12.4677C9.03699 12.0792 9 11.7087 9 11.36C9 11.3294 9.00013 11.2989 9.00038 11.2684ZM20.8078 27.7168H24.8989C25.1549 27.2047 25.4926 26.7297 25.9083 26.3141C26.3833 25.8391 26.9288 25.468 27.5225 25.2045C28.1942 24.9076 28.929 24.748 29.686 24.748C30.443 24.748 31.1778 24.9039 31.8495 25.2045C32.4432 25.468 32.9887 25.8428 33.4637 26.3141C33.8794 26.7297 34.2208 27.2047 34.4731 27.7168C34.8368 28.4441 35.026 29.2531 35.026 30.0918H35.6198C36.9335 30.0918 37.9948 29.0268 37.9948 27.7168V23.3268C37.928 23.0818 37.7276 22.8926 37.479 22.8295H24.5345C23.1407 24.7974 21.7672 26.5404 20.8078 27.7168ZM4.15845 30.0918C4.15845 31.1941 4.59634 32.2513 5.37578 33.0307C6.15523 33.8102 7.21239 34.248 8.3147 34.248C9.417 34.248 10.4742 33.8102 11.2536 33.0307C12.0331 32.2513 12.4709 31.1941 12.4709 30.0918C12.4709 28.9895 12.0331 27.9323 11.2536 27.1529C10.4742 26.3734 9.417 25.9355 8.3147 25.9355C7.21239 25.9355 6.15523 26.3734 5.37578 27.1529C4.59634 27.9323 4.15845 28.9895 4.15845 30.0918ZM25.8498 31.6823C25.641 31.1781 25.5334 30.6376 25.5334 30.0918C25.5334 29.546 25.641 29.0055 25.8498 28.5013C26.0587 27.997 26.3648 27.5388 26.7508 27.1529C27.1367 26.7669 27.5949 26.4608 28.0992 26.2519C28.6034 26.0431 29.1439 25.9355 29.6897 25.9355C30.2355 25.9355 30.776 26.0431 31.2802 26.2519C31.7845 26.4608 32.2427 26.7669 32.6286 27.1529C33.0146 27.5388 33.3207 27.997 33.5296 28.5013C33.7384 29.0055 33.8459 29.546 33.8459 30.0918C33.8459 30.6376 33.7384 31.1781 33.5296 31.6823C33.3207 32.1866 33.0146 32.6448 32.6286 33.0307C32.2427 33.4167 31.7845 33.7228 31.2802 33.9317C30.776 34.1405 30.2355 34.248 29.6897 34.248C29.1439 34.248 28.6034 34.1405 28.0992 33.9317C27.5949 33.7228 27.1367 33.4167 26.7508 33.0307C26.3648 32.6448 26.0587 32.1866 25.8498 31.6823Z" fill="#E3FA86" fill-opacity="0.8"/>
<path fill-rule="evenodd" clip-rule="evenodd" d="M19.5 25.4999C19.5 25.4999 27.48 16.4672 27.48 12.06C27.48 7.65272 23.9072 4.07996 19.5 4.07996C15.0928 4.07996 11.52 7.65272 11.52 12.06C11.52 16.4672 19.5 25.4999 19.5 25.4999ZM18.9881 15.3306H17.7084V16.0877H24.7893V15.3306H23.8722V6.714H18.9881V15.3306ZM15.8529 10.0519C15.4121 11.4951 14.8576 12.6859 14.1893 13.6243C14.3244 13.9371 14.4488 14.2428 14.5625 14.5414C15.1313 13.7381 15.604 12.8138 15.9808 11.7688V16.5356H16.77V11.6195C17.1254 11.982 17.5342 12.4584 17.9963 13.0485L18.6042 12.5259C18.1136 11.9643 17.6586 11.4808 17.2392 11.0756L16.77 11.4915V10.0519H18.4549V9.2947H16.77V7.5458C17.4098 7.48892 17.943 7.43916 18.3696 7.3965L18.1776 6.58603C17.1112 6.73533 15.8351 6.85263 14.3492 6.93795C14.4203 7.21521 14.4736 7.4747 14.5092 7.71642C15.0424 7.68088 15.5329 7.64533 15.9808 7.60978V9.2947H14.2426V10.0519H15.8529ZM23.0404 15.3306H19.8199V13.1871H23.0404V15.3306ZM19.8199 9.58263V7.47115H23.0404V9.58263H19.8199ZM23.0404 12.4406H19.8199V10.3291H23.0404V12.4406Z" fill="#E3FA86" fill-opacity="0.8"/>
</g>
<defs>
<clipPath id="clip0">
<rect width="38" height="38" fill="white"/>
</clipPath>
</defs>
</svg>
