<svg width="48" height="48" viewBox="0 0 48 48" fill="none" xmlns="http://www.w3.org/2000/svg">
<path d="M24 11C16.85 11 11 16.85 11 24C11 31.15 16.85 37 24 37C31.15 37 37 31.15 37 24C37 16.85 31.15 11 24 11ZM21.6548 33.0896L23.1368 25.9916C23.1342 25.9071 23.0783 25.8577 22.9678 25.8421L16.8292 26.0033C16.434 25.9396 16.3521 25.7563 16.5822 25.4495L25.3286 14.6595C25.5704 14.4684 25.7277 14.5061 25.8018 14.7713L24.2314 21.2128C24.221 21.3363 24.26 21.3935 24.3471 21.3831H31.1981C31.5166 21.4221 31.6141 21.5859 31.4919 21.8732L22.2047 33.2976C21.8407 33.5186 21.6574 33.4484 21.6548 33.0896V33.0896Z" fill="#6EFFFF" fill-opacity="0.8"/>
<path d="M12 2H36V-2H12V2ZM46 12V36H50V12H46ZM36 46H12V50H36V46ZM2 36V12H-2V36H2ZM12 46C6.47715 46 2 41.5228 2 36H-2C-2 43.732 4.26801 50 12 50V46ZM46 36C46 41.5228 41.5228 46 36 46V50C43.732 50 50 43.732 50 36H46ZM36 2C41.5228 2 46 6.47715 46 12H50C50 4.26801 43.732 -2 36 -2V2ZM12 -2C4.26801 -2 -2 4.26801 -2 12H2C2 6.47715 6.47715 2 12 2V-2Z" fill="#6EFFFF" fill-opacity="0.8"/>
</svg>
