<svg width="38" height="38" viewBox="0 0 38 38" fill="none" xmlns="http://www.w3.org/2000/svg">
<g clip-path="url(#clip0)">
<path d="M37.479 20.8295H16.0928C14.7755 20.8295 14.3005 20.3285 14.3116 19.0482V11.1105C14.3116 9.92305 13.8589 9.0918 12.6008 9.0918H10.5561C8.38893 9.0918 6.3442 10.1049 5.03424 11.8305C3.59069 13.7305 1.79088 16.1203 0.981897 17.3004C0.492054 18.0055 0.187757 18.8219 0.102405 19.6754C-0.0237668 21.4715 0.00220981 24.9746 0.00220981 24.9746V26.9043C0.00220981 27.5611 0.532874 28.0918 1.18971 28.0918H2.97096C2.97096 27.2531 3.16393 26.4441 3.52389 25.7168C3.77994 25.2047 4.11764 24.7297 4.53326 24.3141C5.54635 23.3047 6.886 22.748 8.31471 22.748C9.74342 22.748 11.0831 23.3047 12.0924 24.3141C12.5081 24.7297 12.8495 25.2047 13.1018 25.7168H24.8989C25.1549 25.2047 25.4926 24.7297 25.9083 24.3141C26.3833 23.8391 26.9288 23.468 27.5225 23.2045C28.1942 22.9076 28.929 22.748 29.686 22.748C30.443 22.748 31.1778 22.9039 31.8495 23.2045C32.4432 23.468 32.9887 23.8428 33.4637 24.3141C33.8794 24.7297 34.2208 25.2047 34.4731 25.7168C34.8368 26.4441 35.026 27.2531 35.026 28.0918H35.6198C36.9335 28.0918 37.9948 27.0268 37.9948 25.7168V21.3268C37.928 21.0818 37.7276 20.8926 37.479 20.8295V20.8295ZM13.0536 16.7734C13.0536 17.1 12.7864 17.3635 12.4598 17.3672L2.66295 17.3857C2.54049 17.3857 2.46998 17.2484 2.54049 17.152C3.46451 15.8717 4.85983 14.0199 5.97682 12.5504C6.51119 11.849 7.20885 11.2701 7.99928 10.8805C8.78971 10.4871 9.67291 10.283 10.5524 10.283H11.8772C12.534 10.283 13.0684 10.8174 13.0647 11.4742L13.0536 16.7734Z" fill="#36CFFF" fill-opacity="0.8"/>
<path d="M4.15845 28.0918C4.15845 29.1941 4.59634 30.2513 5.37578 31.0307C6.15523 31.8102 7.21239 32.248 8.3147 32.248C9.417 32.248 10.4742 31.8102 11.2536 31.0307C12.0331 30.2513 12.4709 29.1941 12.4709 28.0918C12.4709 26.9895 12.0331 25.9323 11.2536 25.1529C10.4742 24.3734 9.417 23.9355 8.3147 23.9355C7.21239 23.9355 6.15523 24.3734 5.37578 25.1529C4.59634 25.9323 4.15845 26.9895 4.15845 28.0918V28.0918Z" fill="#36CFFF" fill-opacity="0.8"/>
<path d="M25.5334 28.0918C25.5334 28.6376 25.641 29.1781 25.8498 29.6823C26.0587 30.1866 26.3648 30.6448 26.7508 31.0307C27.1367 31.4167 27.5949 31.7228 28.0992 31.9317C28.6034 32.1405 29.1439 32.248 29.6897 32.248C30.2355 32.248 30.776 32.1405 31.2802 31.9317C31.7845 31.7228 32.2427 31.4167 32.6286 31.0307C33.0146 30.6448 33.3207 30.1866 33.5296 29.6823C33.7384 29.1781 33.8459 28.6376 33.8459 28.0918C33.8459 27.546 33.7384 27.0055 33.5296 26.5013C33.3207 25.997 33.0146 25.5388 32.6286 25.1529C32.2427 24.7669 31.7845 24.4608 31.2802 24.2519C30.776 24.0431 30.2355 23.9355 29.6897 23.9355C29.1439 23.9355 28.6034 24.0431 28.0992 24.2519C27.5949 24.4608 27.1367 24.7669 26.7508 25.1529C26.3648 25.5388 26.0587 25.997 25.8498 26.5013C25.641 27.0055 25.5334 27.546 25.5334 28.0918V28.0918Z" fill="#36CFFF" fill-opacity="0.8"/>
<path d="M37.7053 19.7051H16.6272C15.9704 19.7051 15.4397 19.1744 15.4397 18.5176V7.60742C15.4397 7.44414 15.5733 7.31055 15.7366 7.31055H37.7053C37.8686 7.31055 38.0022 7.44414 38.0022 7.60742V19.4082C38.0022 19.5715 37.8686 19.7051 37.7053 19.7051Z" fill="#36CFFF" fill-opacity="0.8"/>
</g>
<defs>
<clipPath id="clip0">
<rect width="38" height="38" fill="white"/>
</clipPath>
</defs>
</svg>
