<svg width="48" height="48" viewBox="0 0 48 48" fill="none" xmlns="http://www.w3.org/2000/svg">
<path d="M10.7001 30.825V17.175C10.7001 16.475 11.4001 15.775 12.1001 15.775H33.625C34.325 15.775 35.025 16.475 35.025 17.175V30.825C35.025 31.525 34.325 32.225 33.625 32.225H12.1001C11.2251 32.225 10.7001 31.525 10.7001 30.825V30.825ZM34.1501 17.175C34.1501 17.0001 33.9751 16.65 33.6251 16.65H12.1001C11.9251 16.65 11.5751 16.825 11.5751 17.175V30.825C11.5751 31 11.7501 31.35 12.1001 31.35H33.6251C33.8 31.35 34.1501 31.175 34.1501 30.825V17.175V17.175Z" fill="#6EFFFF" fill-opacity="0.8"/>
<path d="M19.1 17.7L23.825 30.3H13.5C12.975 30.3 12.625 29.95 12.625 29.425V18.575C12.625 18.05 12.975 17.7 13.5 17.7H19.1H19.1Z" fill="#6EFFFF" fill-opacity="0.8"/>
<path d="M29.4251 25.575L24.7001 24.3501V26.8L17.7001 22.4251L22.6001 23.825V21.025L29.4251 25.575ZM37.3001 21.9V26.1C37.3001 26.275 37.1251 26.625 36.7751 26.625H35.9001C35.7251 26.625 35.3751 26.45 35.3751 26.1V21.9C35.3751 21.7251 35.5501 21.375 35.9001 21.375H36.7751C37.1251 21.375 37.3001 21.55 37.3001 21.9V21.9Z" fill="#6EFFFF" fill-opacity="0.8"/>
<path d="M12 2H36V-2H12V2ZM46 12V36H50V12H46ZM36 46H12V50H36V46ZM2 36V12H-2V36H2ZM12 46C6.47715 46 2 41.5228 2 36H-2C-2 43.732 4.26801 50 12 50V46ZM46 36C46 41.5228 41.5228 46 36 46V50C43.732 50 50 43.732 50 36H46ZM36 2C41.5228 2 46 6.47715 46 12H50C50 4.26801 43.732 -2 36 -2V2ZM12 -2C4.26801 -2 -2 4.26801 -2 12H2C2 6.47715 6.47715 2 12 2V-2Z" fill="#6EFFFF" fill-opacity="0.8"/>
</svg>
