<svg width="48" height="48" viewBox="0 0 48 48" fill="none" xmlns="http://www.w3.org/2000/svg">
<g clip-path="url(#clip0)">
<path d="M33.8628 28.3526C35.365 28.3526 36.4781 29.467 36.4781 30.9131C36.4781 32.3606 35.365 33.4736 33.9175 33.4736H18.553C18.0513 33.4736 17.7183 33.8081 17.7183 34.3098C17.7183 34.8101 18.0513 35.1446 18.553 35.1446H28.795C29.2983 35.1446 29.6313 35.4791 29.6313 35.9793C29.6313 36.4811 29.2968 36.8156 28.7965 36.8156H18.553C17.1055 36.8156 15.9925 35.7011 15.9925 34.255C15.9925 32.8061 17.1055 31.6945 18.553 31.6945H33.8628C34.363 31.6945 34.6975 31.3586 34.6975 30.8583C34.6975 30.3566 34.363 30.0235 33.8628 30.0235H29.575C29.0748 30.0235 28.7403 29.6891 28.7403 29.1873C28.7403 28.687 29.0748 28.3526 29.575 28.3526H33.8628ZM16.882 28.4088C17.3838 28.4088 17.7183 28.7433 17.7183 29.2436C17.7183 29.7453 17.3275 30.0783 16.8273 30.0783H11.7062C11.203 30.0783 10.87 29.7453 10.87 29.2436C10.87 28.7433 11.2045 28.4088 11.7048 28.4088H16.882ZM23.2241 11.317C27.6776 11.317 31.3511 14.8248 31.2964 19.1673C31.2964 25.57 23.2241 30.0783 23.2241 30.0783C23.2241 30.0783 15.1518 25.7373 15.1518 19.1673C15.1518 14.8248 18.7706 11.317 23.2241 11.317V11.317ZM23.2241 16.3285C21.6093 16.3285 20.2728 17.7198 20.2166 19.333C20.2166 21.0603 21.6079 22.3405 23.2241 22.3405C24.8374 22.3405 26.2286 20.9493 26.2286 19.3345C26.2286 17.7198 24.8374 16.3285 23.2241 16.3285V16.3285Z" fill="#6EFFFF" fill-opacity="0.8"/>
</g>
<path d="M12 2H36V-2H12V2ZM46 12V36H50V12H46ZM36 46H12V50H36V46ZM2 36V12H-2V36H2ZM12 46C6.47715 46 2 41.5228 2 36H-2C-2 43.732 4.26801 50 12 50V46ZM46 36C46 41.5228 41.5228 46 36 46V50C43.732 50 50 43.732 50 36H46ZM36 2C41.5228 2 46 6.47715 46 12H50C50 4.26801 43.732 -2 36 -2V2ZM12 -2C4.26801 -2 -2 4.26801 -2 12H2C2 6.47715 6.47715 2 12 2V-2Z" fill="#6EFFFF" fill-opacity="0.8"/>
<defs>
<clipPath id="clip0">
<rect width="28.1212" height="28.1212" fill="white" transform="translate(10.1818 10.1818)"/>
</clipPath>
</defs>
</svg>
