<svg width="24" height="24" viewBox="0 0 24 24" fill="none" xmlns="http://www.w3.org/2000/svg">
<path d="M15.6 23.85C15.15 23.85 14.7 23.4 14.7 22.95C14.7 22.5 15.15 22.05 15.6 22.05H21.9L22.05 15.75C22.05 15.3 22.5 14.85 22.95 14.85C23.4 14.85 23.85 15.3 23.85 15.75V22.65C23.85 23.4 23.25 23.85 22.65 23.85H15.6V23.85ZM1.20005 9.30005C0.750049 9.30005 0.300049 8.85005 0.300049 8.40005V1.50005C0.300049 0.750049 0.900049 0.300049 1.50005 0.300049H8.40005C8.85005 0.300049 9.30005 0.750049 9.30005 1.20005C9.30005 1.65005 8.85005 2.10005 8.40005 2.10005H2.10005V8.40005C2.10005 8.85005 1.65005 9.30005 1.20005 9.30005V9.30005ZM1.50005 23.85C0.750049 23.85 0.300049 23.25 0.300049 22.65V15.75C0.300049 15.3 0.750049 14.85 1.20005 14.85C1.65005 14.85 2.10005 15.3 2.10005 15.75V20.85L6.75005 16.2C6.90005 16.05 7.20005 15.9 7.35005 15.9C7.50005 15.9 7.80005 16.05 7.95005 16.2C8.10005 16.35 8.25005 16.65 8.25005 16.8C8.25005 17.1 8.10005 17.25 7.95005 17.4L3.30005 22.05H8.40005C8.85005 22.05 9.30005 22.5 9.30005 22.95C9.30005 23.4 8.85005 23.85 8.40005 23.85H1.50005ZM22.95 9.30005C22.5 9.30005 22.05 8.85005 22.05 8.40005V3.30005L17.4 7.95005C17.25 8.10005 16.95 8.25005 16.8 8.25005C16.5 8.25005 16.35 8.10005 16.2 7.95005C15.9 7.65005 15.9 7.05005 16.2 6.75005L20.85 2.10005H15.75C15.3 2.10005 14.85 1.65005 14.85 1.20005C14.85 0.750049 15.3 0.300049 15.75 0.300049H22.65C23.4 0.300049 23.85 0.900049 23.85 1.50005V8.40005C23.85 8.85005 23.4 9.30005 22.95 9.30005V9.30005Z" fill="white"/>
</svg>
