<svg width="24" height="24" viewBox="0 0 24 24" fill="none" xmlns="http://www.w3.org/2000/svg">
<path d="M2.49965 13.0588H9.883L9.96237 13.062L10.0957 13.08L10.2132 13.1117L10.3306 13.1583L10.4343 13.2133L10.5359 13.2842L10.6312 13.3689C10.6693 13.4059 10.7031 13.4461 10.7338 13.4874L10.809 13.6038L10.8661 13.7245L10.9031 13.8356L10.9349 13.9943L10.9412 14.1171V21.5291C10.9407 21.7987 10.8372 22.058 10.652 22.2539C10.4667 22.4498 10.2137 22.5677 9.94449 22.5833C9.67531 22.599 9.4103 22.5113 9.20358 22.3382C8.99686 22.1651 8.86401 21.9196 8.83217 21.6519L8.82476 21.5291V16.6717L2.16525 23.3313C1.97481 23.5211 1.71927 23.6313 1.45053 23.6395C1.18179 23.6477 0.920001 23.5533 0.718337 23.3755C0.516673 23.1977 0.390254 22.9497 0.364757 22.6821C0.33926 22.4144 0.416597 22.1471 0.581061 21.9344L0.668895 21.8349L7.32629 15.1753H2.50071C2.24133 15.1756 1.9909 15.0805 1.79698 14.9082C1.60306 14.736 1.47917 14.4985 1.44882 14.2409L1.44141 14.1171C1.44147 13.8577 1.53678 13.6074 1.70924 13.4137C1.88169 13.22 2.11929 13.0963 2.3769 13.0662L2.49965 13.0588ZM23.3301 0.669828C23.5123 0.852052 23.6217 1.0945 23.6379 1.35168C23.6541 1.60887 23.5758 1.86311 23.4179 2.06672L23.3301 2.1662L16.6716 8.8258L21.4993 8.82686C21.7585 8.82689 22.0087 8.92205 22.2024 9.0943C22.3961 9.26654 22.5198 9.50388 22.5501 9.7613L22.5576 9.88511C22.5575 10.1445 22.4622 10.3948 22.2897 10.5885C22.1173 10.7822 21.8797 10.9059 21.6221 10.936L21.4993 10.9434L14.0366 10.9402L13.9033 10.9222L13.7858 10.8905L13.6683 10.8439L13.5646 10.7889L13.463 10.718L13.3678 10.6333C13.3307 10.5964 13.2964 10.5567 13.2651 10.5148L13.19 10.3984L13.1329 10.2777L13.0958 10.1666L13.0641 10.0079L13.0577 9.88405V2.47204C13.0583 2.2024 13.1618 1.94314 13.347 1.74721C13.5322 1.55128 13.7853 1.43345 14.0545 1.41779C14.3237 1.40212 14.5887 1.4898 14.7954 1.66291C15.0021 1.83603 15.135 2.08153 15.1668 2.34928L15.1742 2.47204V7.32731L21.8337 0.669828C22.0322 0.471436 22.3013 0.359985 22.5819 0.359985C22.8625 0.359985 23.1316 0.471436 23.3301 0.669828V0.669828Z" fill="white"/>
</svg>
