<svg t="1606708044489" class="icon" viewBox="0 0 1024 1024" version="1.1" xmlns="http://www.w3.org/2000/svg" p-id="3101" width="24" height="24"><path d="M390.352868 644.819559c-61.386962 37.002696-70.390383-20.769255-70.390382-20.769256L243.19468 429.726466c-29.568053-92.080442 25.577901-41.606718 25.5779-41.606719s47.26796 38.776097 83.213437 62.375974a89.249821 89.249821 0 0 0 76.80191 6.820774L931.035585 206.550756A519.81115 519.81115 0 0 0 511.96726 0.017734C229.17799 0.017734 0 217.293474 0 485.349874a475.748953 475.748953 0 0 0 194.08511 380.360435l-21.314917 132.732253s-10.23116 38.776097 25.612005 20.769255a1480.107853 1480.107853 0 0 0 124.376805-82.872398 535.191994 535.191994 0 0 0 189.174153 34.342594c282.721062 0 511.96726-217.241637 511.967261-485.298035a462.653068 462.653068 0 0 0-53.543072-216.116209c-159.981243 104.323731-532.020334 346.597606-580.03858 375.517686z" fill="#24AF41" p-id="3102"></path></svg>