<svg t="1606709256793" class="icon" viewBox="0 0 1024 1024" version="1.1" xmlns="http://www.w3.org/2000/svg" p-id="6984" width="24" height="24"><path d="M512 0C229.229353 0 0 229.229353 0 512S229.229353 1024 512 1024C794.768119 1024 1024 794.770647 1024 512S794.768119 0 512 0z m288.68962 404.568494L484.807111 720.453531c-9.731793 9.724207-22.507773 15.081877-35.984118 15.081876-9.208415 0-18.249956-2.553679-26.173946-7.38797a43.834785 43.834785 0 0 1-10.505482-7.693906l-181.890212-181.895269c-9.600316-9.605373-14.889719-22.507773-14.889718-36.333037 0-13.830321 5.289402-26.732721 14.889718-36.333037 9.597788-9.597788 22.500188-14.882133 36.325452-14.882134s26.727664 5.284346 36.333037 14.882134l145.160217 145.152632 279.137343-279.137343c9.605373-9.597788 22.507773-14.884662 36.335566-14.884662s26.725136 5.284346 36.330509 14.884662c9.850627 9.410686 15.433323 22.280217 15.59514 36.133293 0.15676 13.86319-5.087131 26.833857-14.780997 36.527724z" fill="#24AF41" p-id="6985"></path></svg>